<svg width="89" height="80" viewBox="0 0 89 80" fill="none" xmlns="http://www.w3.org/2000/svg">
<g clip-path="url(#clip0_1980_10294)">
<path d="M88.2757 39.7844C88.2757 33.9365 80.9524 28.3945 69.7245 24.9578C72.3156 13.514 71.164 4.40931 66.0899 1.49437C64.9203 0.810624 63.5528 0.486743 62.0593 0.486743V4.49928C62.887 4.49928 63.5528 4.66122 64.1106 4.96711C66.5577 6.37059 67.6193 11.7146 66.7916 18.5881C66.5937 20.2795 66.2698 22.0609 65.8739 23.8782C62.3472 23.0145 58.4966 22.3488 54.4481 21.9169C52.019 18.5881 49.4999 15.5652 46.9628 12.9202C52.8287 7.46819 58.3347 4.48128 62.0773 4.48128V0.46875C57.1291 0.46875 50.6515 3.99546 44.1019 10.1132C37.5523 4.03145 31.0746 0.540724 26.1265 0.540724V4.55326C29.8511 4.55326 35.3751 7.52217 41.2409 12.9382C38.7219 15.5832 36.2028 18.5881 33.8097 21.9169C29.7431 22.3488 25.8925 23.0145 22.3658 23.8962C21.952 22.0968 21.6461 20.3515 21.4302 18.6781C20.5845 11.8046 21.6281 6.46056 24.0572 5.03908C24.597 4.7152 25.2988 4.57125 26.1265 4.57125V0.558717C24.615 0.558717 23.2475 0.882598 22.0599 1.56635C17.0038 4.48128 15.8702 13.568 18.4792 24.9758C7.28734 28.4305 0 33.9545 0 39.7844C0 45.6322 7.32332 51.1742 18.5512 54.611C15.9602 66.0548 17.1117 75.1594 22.1859 78.0744C23.3555 78.7581 24.723 79.082 26.2344 79.082C31.1826 79.082 37.6602 75.5553 44.2098 69.4375C50.7595 75.5193 57.2371 79.01 62.1853 79.01C63.6967 79.01 65.0642 78.6862 66.2518 78.0024C71.308 75.0875 72.4415 66.0008 69.8325 54.593C80.9884 51.1562 88.2757 45.6142 88.2757 39.7844ZM64.8483 27.7828C64.1825 30.1039 63.3548 32.497 62.4192 34.8902C61.6815 33.4507 60.9077 32.0112 60.0621 30.5717C59.2344 29.1323 58.3527 27.7288 57.471 26.3613C60.0261 26.7391 62.4912 27.207 64.8483 27.7828ZM56.6073 46.9458C55.2038 49.3749 53.7644 51.678 52.2709 53.8192C49.5899 54.0532 46.8729 54.1791 44.1379 54.1791C41.4209 54.1791 38.7039 54.0532 36.0408 53.8372C34.5474 51.696 33.0899 49.4109 31.6864 46.9997C30.3189 44.6426 29.0774 42.2495 27.9438 39.8384C29.0594 37.4272 30.3189 35.0161 31.6684 32.659C33.0719 30.2299 34.5114 27.9267 36.0048 25.7855C38.6859 25.5516 41.4029 25.4256 44.1379 25.4256C46.8549 25.4256 49.5719 25.5516 52.2349 25.7675C53.7284 27.9087 55.1858 30.1939 56.5893 32.605C57.9568 34.9621 59.1984 37.3553 60.332 39.7664C59.1984 42.1775 57.9568 44.5886 56.6073 46.9458ZM62.4192 44.6066C63.3908 47.0177 64.2185 49.4289 64.9023 51.768C62.5452 52.3438 60.0621 52.8296 57.489 53.2075C58.3707 51.822 59.2524 50.4005 60.0801 48.943C60.9078 47.5036 61.6815 46.0461 62.4192 44.6066ZM44.1739 63.8056C42.5005 62.0782 40.8271 60.1529 39.1717 58.0477C40.7911 58.1197 42.4465 58.1737 44.1199 58.1737C45.8113 58.1737 47.4847 58.1377 49.1221 58.0477C47.5026 60.1529 45.8293 62.0782 44.1739 63.8056ZM30.7868 53.2075C28.2317 52.8296 25.7666 52.3618 23.4094 51.786C24.0752 49.4648 24.9029 47.0717 25.8386 44.6786C26.5763 46.1181 27.35 47.5575 28.1957 48.997C29.0414 50.4365 29.9051 51.84 30.7868 53.2075ZM44.0839 15.7632C45.7573 17.4905 47.4307 19.4158 49.0861 21.5211C47.4667 21.4491 45.8113 21.3951 44.1379 21.3951C42.4465 21.3951 40.7731 21.4311 39.1357 21.5211C40.7551 19.4158 42.4285 17.4905 44.0839 15.7632ZM30.7688 26.3613C29.8871 27.7468 29.0054 29.1683 28.1777 30.6257C27.35 32.0652 26.5763 33.5047 25.8386 34.9441C24.8669 32.533 24.0392 30.1219 23.3555 27.7828C25.7126 27.225 28.1957 26.7391 30.7688 26.3613ZM14.4847 48.889C8.11504 46.172 3.99454 42.6093 3.99454 39.7844C3.99454 36.9594 8.11504 33.3787 14.4847 30.6797C16.0321 30.0139 17.7235 29.4202 19.4689 28.8624C20.4945 32.3891 21.844 36.0597 23.5174 39.8204C21.862 43.563 20.5305 47.2157 19.5229 50.7244C17.7415 50.1666 16.0501 49.5548 14.4847 48.889ZM24.1652 74.6016C21.7181 73.1982 20.6565 67.8541 21.4842 60.9806C21.6821 59.2892 22.006 57.5079 22.4018 55.6906C25.9285 56.5542 29.7791 57.22 33.8276 57.6518C36.2568 60.9806 38.7758 64.0035 41.3129 66.6486C35.447 72.1006 29.9411 75.0875 26.1984 75.0875C25.3887 75.0695 24.705 74.9075 24.1652 74.6016ZM66.8456 60.8907C67.6913 67.7641 66.6476 73.1082 64.2185 74.5297C63.6787 74.8536 62.977 74.9975 62.1493 74.9975C58.4246 74.9975 52.9007 72.0286 47.0348 66.6126C49.5539 63.9675 52.073 60.9626 54.4661 57.6339C58.5326 57.202 62.3832 56.5363 65.9099 55.6546C66.3238 57.4719 66.6477 59.2173 66.8456 60.8907ZM73.773 48.889C72.2256 49.5548 70.5342 50.1486 68.7889 50.7064C67.7632 47.1797 66.4137 43.509 64.7403 39.7484C66.3957 36.0058 67.7273 32.3531 68.7349 28.8444C70.5162 29.4022 72.2076 30.0139 73.791 30.6797C80.1607 33.3967 84.2812 36.9594 84.2812 39.7844C84.2632 42.6093 80.1427 46.19 73.773 48.889Z" fill="url(#paint0_linear_1980_10294)"/>
<path d="M44.1195 48.0075C48.6609 48.0075 52.3425 44.326 52.3425 39.7845C52.3425 35.2431 48.6609 31.5615 44.1195 31.5615C39.578 31.5615 35.8965 35.2431 35.8965 39.7845C35.8965 44.326 39.578 48.0075 44.1195 48.0075Z" fill="url(#paint1_linear_1980_10294)"/>
</g>
<defs>
<linearGradient id="paint0_linear_1980_10294" x1="88.2757" y1="79.082" x2="10.1878" y2="-8.60388" gradientUnits="userSpaceOnUse">
<stop stop-color="#57EBDE"/>
<stop offset="1" stop-color="#AEFB2A"/>
</linearGradient>
<linearGradient id="paint1_linear_1980_10294" x1="52.3425" y1="48.0075" x2="35.8965" y2="31.5615" gradientUnits="userSpaceOnUse">
<stop stop-color="#57EBDE"/>
<stop offset="1" stop-color="#AEFB2A"/>
</linearGradient>
<clipPath id="clip0_1980_10294">
<rect width="89" height="79.2909" fill="white"/>
</clipPath>
</defs>
</svg>
